<svg xmlns="http://www.w3.org/2000/svg" width="38.934" height="31.147" viewBox="0 0 38.934 31.147">
  <path id="Header-Logo-Image" d="M12.582,14.913a4.549,4.549,0,0,0-3.5,4.508,7.225,7.225,0,0,1,3.036-1.881l.464-2.627ZM5.826,17.946,3.9,7.026a.3.3,0,0,1,.015-.161,23.753,23.753,0,0,1,11.5-2.981c.1,0,.2.01.3.012a5.842,5.842,0,0,1,3.138-1.582,29.583,29.583,0,0,1,3.478-.324A3.909,3.909,0,0,0,19.78.347,27.6,27.6,0,0,0,2.017,3.471,4.02,4.02,0,0,0,.062,7.7l1.93,10.92c.866,4.9,8.294,8.643,12.438,8.643a5.6,5.6,0,0,0,.609-.049,16.334,16.334,0,0,1-2.4-4.111c-2.9-.79-6.452-3.14-6.809-5.158Zm5.934-8.362a2.4,2.4,0,0,0-.248-.694A3.832,3.832,0,0,1,9.364,10a3.835,3.835,0,0,1-2.4-.315,2.392,2.392,0,0,0,.005.736,2.433,2.433,0,0,0,4.793-.843ZM36.912,7.355A27.576,27.576,0,0,0,19.15,4.231a4.027,4.027,0,0,0-3.287,3.307l-1.93,10.92c-.936,5.3,5.8,11.94,9.631,12.614S36,27.8,36.937,22.5l1.93-10.92A4.019,4.019,0,0,0,36.912,7.355ZM20.29,13.244a2.433,2.433,0,0,1,4.793.843,2.4,2.4,0,0,1-.248.694,4.04,4.04,0,0,0-4.55-.8,2.377,2.377,0,0,1,0-.737Zm4.287,12.091a6.484,6.484,0,0,1-5.417-6.868,10.016,10.016,0,0,0,6.052,3.272,10.033,10.033,0,0,0,6.809-1.01A6.5,6.5,0,0,1,24.577,25.335ZM32.5,16.128a4.041,4.041,0,0,0-4.551-.8,2.392,2.392,0,0,1,.005-.736,2.433,2.433,0,0,1,4.793.843,2.39,2.39,0,0,1-.248.694Z" transform="translate(0.002 0)" fill="#13be13"/>
</svg>
