<svg xmlns="http://www.w3.org/2000/svg" width="386.146" height="25.286" viewBox="0 0 386.146 25.286">
  <g id="LargeStar1" transform="translate(-5762.854 386.404)">
    <path id="Path_7" data-name="Path 7" d="M24.442,9.068q0-.543-.822-.675L16.255,7.322,12.953.645q-.279-.6-.719-.6t-.719.6l-3.3,6.676L.848,8.393q-.822.132-.822.675a1.118,1.118,0,0,0,.367.7l5.341,5.194L4.472,22.3a2.375,2.375,0,0,0-.029.294.865.865,0,0,0,.154.521.533.533,0,0,0,.462.213,1.244,1.244,0,0,0,.587-.176l6.588-3.463,6.589,3.463a1.188,1.188,0,0,0,.587.176.517.517,0,0,0,.448-.213.866.866,0,0,0,.154-.521A2.2,2.2,0,0,0,20,22.3l-1.263-7.337,5.326-5.194a1.06,1.06,0,0,0,.382-.7" transform="translate(5763.828 -385.448)" fill="#9d1e31" stroke="#9d1e31" stroke-width="2"/>
    <path id="Path_7-2" data-name="Path 7" d="M24.442,9.068q0-.543-.822-.675L16.255,7.322,12.953.645q-.279-.6-.719-.6t-.719.6l-3.3,6.676L.848,8.393q-.822.132-.822.675a1.118,1.118,0,0,0,.367.7l5.341,5.194L4.472,22.3a2.375,2.375,0,0,0-.029.294.865.865,0,0,0,.154.521.533.533,0,0,0,.462.213,1.244,1.244,0,0,0,.587-.176l6.588-3.463,6.589,3.463a1.188,1.188,0,0,0,.587.176.517.517,0,0,0,.448-.213.866.866,0,0,0,.154-.521A2.2,2.2,0,0,0,20,22.3l-1.263-7.337,5.326-5.194a1.06,1.06,0,0,0,.382-.7" transform="translate(5803.76 -385.448)" fill="none" stroke="#9d1e31" stroke-width="2"/>
    <path id="Path_7-3" data-name="Path 7" d="M24.442,9.068q0-.543-.822-.675L16.255,7.322,12.953.645q-.279-.6-.719-.6t-.719.6l-3.3,6.676L.848,8.393q-.822.132-.822.675a1.118,1.118,0,0,0,.367.7l5.341,5.194L4.472,22.3a2.375,2.375,0,0,0-.029.294.865.865,0,0,0,.154.521.533.533,0,0,0,.462.213,1.244,1.244,0,0,0,.587-.176l6.588-3.463,6.589,3.463a1.188,1.188,0,0,0,.587.176.517.517,0,0,0,.448-.213.866.866,0,0,0,.154-.521A2.2,2.2,0,0,0,20,22.3l-1.263-7.337,5.326-5.194a1.06,1.06,0,0,0,.382-.7" transform="translate(5843.693 -385.448)" fill="none" stroke="#9d1e31" stroke-width="2"/>
    <path id="Path_7-4" data-name="Path 7" d="M24.442,9.068q0-.543-.822-.675L16.255,7.322,12.953.645q-.279-.6-.719-.6t-.719.6l-3.3,6.676L.848,8.393q-.822.132-.822.675a1.118,1.118,0,0,0,.367.7l5.341,5.194L4.472,22.3a2.375,2.375,0,0,0-.029.294.865.865,0,0,0,.154.521.533.533,0,0,0,.462.213,1.244,1.244,0,0,0,.587-.176l6.588-3.463,6.589,3.463a1.188,1.188,0,0,0,.587.176.517.517,0,0,0,.448-.213.866.866,0,0,0,.154-.521A2.2,2.2,0,0,0,20,22.3l-1.263-7.337,5.326-5.194a1.06,1.06,0,0,0,.382-.7" transform="translate(5883.625 -385.448)" fill="none" stroke="#9d1e31" stroke-width="2"/>
    <path id="Path_7-5" data-name="Path 7" d="M24.442,9.068q0-.543-.822-.675L16.255,7.322,12.953.645q-.279-.6-.719-.6t-.719.6l-3.3,6.676L.848,8.393q-.822.132-.822.675a1.118,1.118,0,0,0,.367.7l5.341,5.194L4.472,22.3a2.375,2.375,0,0,0-.029.294.865.865,0,0,0,.154.521.533.533,0,0,0,.462.213,1.244,1.244,0,0,0,.587-.176l6.588-3.463,6.589,3.463a1.188,1.188,0,0,0,.587.176.517.517,0,0,0,.448-.213.866.866,0,0,0,.154-.521A2.2,2.2,0,0,0,20,22.3l-1.263-7.337,5.326-5.194a1.06,1.06,0,0,0,.382-.7" transform="translate(5923.558 -385.448)" fill="none" stroke="#9d1e31" stroke-width="2"/>
    <path id="Path_11" data-name="Path 11" d="M24.442,9.068q0-.543-.822-.675L16.255,7.322,12.953.645q-.279-.6-.719-.6t-.719.6l-3.3,6.676L.848,8.393q-.822.132-.822.675a1.118,1.118,0,0,0,.367.7l5.341,5.194L4.472,22.3a2.375,2.375,0,0,0-.029.294.865.865,0,0,0,.154.521.533.533,0,0,0,.462.213,1.244,1.244,0,0,0,.587-.176l6.588-3.463,6.589,3.463a1.188,1.188,0,0,0,.587.176.517.517,0,0,0,.448-.213.866.866,0,0,0,.154-.521A2.2,2.2,0,0,0,20,22.3l-1.263-7.337,5.326-5.194a1.06,1.06,0,0,0,.382-.7" transform="translate(5843.693 -385.448)" fill="none" stroke="#9d1e31" stroke-width="2"/>
    <path id="Path_7-6" data-name="Path 7" d="M24.442,9.068q0-.543-.822-.675L16.255,7.322,12.953.645q-.279-.6-.719-.6t-.719.6l-3.3,6.676L.848,8.393q-.822.132-.822.675a1.118,1.118,0,0,0,.367.7l5.341,5.194L4.472,22.3a2.375,2.375,0,0,0-.029.294.865.865,0,0,0,.154.521.533.533,0,0,0,.462.213,1.244,1.244,0,0,0,.587-.176l6.588-3.463,6.589,3.463a1.188,1.188,0,0,0,.587.176.517.517,0,0,0,.448-.213.866.866,0,0,0,.154-.521A2.2,2.2,0,0,0,20,22.3l-1.263-7.337,5.326-5.194a1.06,1.06,0,0,0,.382-.7" transform="translate(5963.828 -385.448)" fill="none" stroke="#9d1e31" stroke-width="2"/>
    <path id="Path_7-7" data-name="Path 7" d="M24.442,9.068q0-.543-.822-.675L16.255,7.322,12.953.645q-.279-.6-.719-.6t-.719.6l-3.3,6.676L.848,8.393q-.822.132-.822.675a1.118,1.118,0,0,0,.367.7l5.341,5.194L4.472,22.3a2.375,2.375,0,0,0-.029.294.865.865,0,0,0,.154.521.533.533,0,0,0,.462.213,1.244,1.244,0,0,0,.587-.176l6.588-3.463,6.589,3.463a1.188,1.188,0,0,0,.587.176.517.517,0,0,0,.448-.213.866.866,0,0,0,.154-.521A2.2,2.2,0,0,0,20,22.3l-1.263-7.337,5.326-5.194a1.06,1.06,0,0,0,.382-.7" transform="translate(6003.76 -385.448)" fill="none" stroke="#9d1e31" stroke-width="2"/>
    <path id="Path_7-8" data-name="Path 7" d="M24.442,9.068q0-.543-.822-.675L16.255,7.322,12.953.645q-.279-.6-.719-.6t-.719.6l-3.3,6.676L.848,8.393q-.822.132-.822.675a1.118,1.118,0,0,0,.367.7l5.341,5.194L4.472,22.3a2.375,2.375,0,0,0-.029.294.865.865,0,0,0,.154.521.533.533,0,0,0,.462.213,1.244,1.244,0,0,0,.587-.176l6.588-3.463,6.589,3.463a1.188,1.188,0,0,0,.587.176.517.517,0,0,0,.448-.213.866.866,0,0,0,.154-.521A2.2,2.2,0,0,0,20,22.3l-1.263-7.337,5.326-5.194a1.06,1.06,0,0,0,.382-.7" transform="translate(6043.693 -385.448)" fill="none" stroke="#9d1e31" stroke-width="2"/>
    <path id="Path_7-9" data-name="Path 7" d="M24.442,9.068q0-.543-.822-.675L16.255,7.322,12.953.645q-.279-.6-.719-.6t-.719.6l-3.3,6.676L.848,8.393q-.822.132-.822.675a1.118,1.118,0,0,0,.367.7l5.341,5.194L4.472,22.3a2.375,2.375,0,0,0-.029.294.865.865,0,0,0,.154.521.533.533,0,0,0,.462.213,1.244,1.244,0,0,0,.587-.176l6.588-3.463,6.589,3.463a1.188,1.188,0,0,0,.587.176.517.517,0,0,0,.448-.213.866.866,0,0,0,.154-.521A2.2,2.2,0,0,0,20,22.3l-1.263-7.337,5.326-5.194a1.06,1.06,0,0,0,.382-.7" transform="translate(6083.625 -385.448)" fill="none" stroke="#9d1e31" stroke-width="2"/>
    <path id="Path_7-10" data-name="Path 7" d="M24.442,9.068q0-.543-.822-.675L16.255,7.322,12.953.645q-.279-.6-.719-.6t-.719.6l-3.3,6.676L.848,8.393q-.822.132-.822.675a1.118,1.118,0,0,0,.367.7l5.341,5.194L4.472,22.3a2.375,2.375,0,0,0-.029.294.865.865,0,0,0,.154.521.533.533,0,0,0,.462.213,1.244,1.244,0,0,0,.587-.176l6.588-3.463,6.589,3.463a1.188,1.188,0,0,0,.587.176.517.517,0,0,0,.448-.213.866.866,0,0,0,.154-.521A2.2,2.2,0,0,0,20,22.3l-1.263-7.337,5.326-5.194a1.06,1.06,0,0,0,.382-.7" transform="translate(6123.558 -385.448)" fill="none" stroke="#9d1e31" stroke-width="2"/>
    <path id="Path_11-2" data-name="Path 11" d="M24.442,9.068q0-.543-.822-.675L16.255,7.322,12.953.645q-.279-.6-.719-.6t-.719.6l-3.3,6.676L.848,8.393q-.822.132-.822.675a1.118,1.118,0,0,0,.367.7l5.341,5.194L4.472,22.3a2.375,2.375,0,0,0-.029.294.865.865,0,0,0,.154.521.533.533,0,0,0,.462.213,1.244,1.244,0,0,0,.587-.176l6.588-3.463,6.589,3.463a1.188,1.188,0,0,0,.587.176.517.517,0,0,0,.448-.213.866.866,0,0,0,.154-.521A2.2,2.2,0,0,0,20,22.3l-1.263-7.337,5.326-5.194a1.06,1.06,0,0,0,.382-.7" transform="translate(6043.693 -385.448)" fill="none" stroke="#9d1e31" stroke-width="2"/>
  </g>
</svg>
