<svg xmlns="http://www.w3.org/2000/svg" width="667.752" height="42.807" viewBox="0 0 667.752 42.807">
  <g id="Rating10Star" transform="translate(-596.853 -605.596)">
    <g id="Group_16" data-name="Group 16" transform="translate(597.854 606.596)">
      <path id="Path_7" data-name="Path 7" d="M42.813,15.857q0-.952-1.44-1.183L28.465,12.8,22.68,1.1Q22.191.044,21.42.044T20.16,1.1L14.374,12.8,1.466,14.675q-1.44.231-1.44,1.183a1.959,1.959,0,0,0,.643,1.234l9.36,9.1L7.816,39.051a4.163,4.163,0,0,0-.051.514,1.517,1.517,0,0,0,.27.913.934.934,0,0,0,.81.373,2.18,2.18,0,0,0,1.029-.308l11.545-6.069,11.546,6.069a2.081,2.081,0,0,0,1.028.308.906.906,0,0,0,.785-.373,1.518,1.518,0,0,0,.27-.913,3.85,3.85,0,0,0-.026-.514L32.808,26.194l9.334-9.1a1.858,1.858,0,0,0,.669-1.234" transform="translate(-0.026 -0.044)" fill="#9d1e31" stroke="#9d1e31" stroke-width="2"/>
      <path id="Path_7-2" data-name="Path 7" d="M42.813,15.857q0-.952-1.44-1.183L28.465,12.8,22.68,1.1Q22.191.044,21.42.044T20.16,1.1L14.374,12.8,1.466,14.675q-1.44.231-1.44,1.183a1.959,1.959,0,0,0,.643,1.234l9.36,9.1L7.816,39.051a4.163,4.163,0,0,0-.051.514,1.517,1.517,0,0,0,.27.913.934.934,0,0,0,.81.373,2.18,2.18,0,0,0,1.029-.308l11.545-6.069,11.546,6.069a2.081,2.081,0,0,0,1.028.308.906.906,0,0,0,.785-.373,1.518,1.518,0,0,0,.27-.913,3.85,3.85,0,0,0-.026-.514L32.808,26.194l9.334-9.1a1.858,1.858,0,0,0,.669-1.234" transform="translate(69.952 -0.044)" fill="#9d1e31" stroke="#9d1e31" stroke-width="2"/>
      <path id="Path_7-3" data-name="Path 7" d="M42.813,15.857q0-.952-1.44-1.183L28.465,12.8,22.68,1.1Q22.191.044,21.42.044T20.16,1.1L14.374,12.8,1.466,14.675q-1.44.231-1.44,1.183a1.959,1.959,0,0,0,.643,1.234l9.36,9.1L7.816,39.051a4.163,4.163,0,0,0-.051.514,1.517,1.517,0,0,0,.27.913.934.934,0,0,0,.81.373,2.18,2.18,0,0,0,1.029-.308l11.545-6.069,11.546,6.069a2.081,2.081,0,0,0,1.028.308.906.906,0,0,0,.785-.373,1.518,1.518,0,0,0,.27-.913,3.85,3.85,0,0,0-.026-.514L32.808,26.194l9.334-9.1a1.858,1.858,0,0,0,.669-1.234" transform="translate(139.93 -0.044)" fill="#9d1e31" stroke="#9d1e31" stroke-width="2"/>
      <path id="Path_7-4" data-name="Path 7" d="M42.813,15.857q0-.952-1.44-1.183L28.465,12.8,22.68,1.1Q22.191.044,21.42.044T20.16,1.1L14.374,12.8,1.466,14.675q-1.44.231-1.44,1.183a1.959,1.959,0,0,0,.643,1.234l9.36,9.1L7.816,39.051a4.163,4.163,0,0,0-.051.514,1.517,1.517,0,0,0,.27.913.934.934,0,0,0,.81.373,2.18,2.18,0,0,0,1.029-.308l11.545-6.069,11.546,6.069a2.081,2.081,0,0,0,1.028.308.906.906,0,0,0,.785-.373,1.518,1.518,0,0,0,.27-.913,3.85,3.85,0,0,0-.026-.514L32.808,26.194l9.334-9.1a1.858,1.858,0,0,0,.669-1.234" transform="translate(209.907 -0.044)" fill="#9d1e31" stroke="#9d1e31" stroke-width="2"/>
      <path id="Path_7-5" data-name="Path 7" d="M42.813,15.857q0-.952-1.44-1.183L28.465,12.8,22.68,1.1Q22.191.044,21.42.044T20.16,1.1L14.374,12.8,1.466,14.675q-1.44.231-1.44,1.183a1.959,1.959,0,0,0,.643,1.234l9.36,9.1L7.816,39.051a4.163,4.163,0,0,0-.051.514,1.517,1.517,0,0,0,.27.913.934.934,0,0,0,.81.373,2.18,2.18,0,0,0,1.029-.308l11.545-6.069,11.546,6.069a2.081,2.081,0,0,0,1.028.308.906.906,0,0,0,.785-.373,1.518,1.518,0,0,0,.27-.913,3.85,3.85,0,0,0-.026-.514L32.808,26.194l9.334-9.1a1.858,1.858,0,0,0,.669-1.234" transform="translate(279.885 -0.044)" fill="#9d1e31" stroke="#9d1e31" stroke-width="2"/>
    </g>
    <g id="Group_16-2" data-name="Group 16" transform="translate(940.907 606.596)">
      <path id="Path_7-6" data-name="Path 7" d="M42.813,15.857q0-.952-1.44-1.183L28.465,12.8,22.68,1.1Q22.191.044,21.42.044T20.16,1.1L14.374,12.8,1.466,14.675q-1.44.231-1.44,1.183a1.959,1.959,0,0,0,.643,1.234l9.36,9.1L7.816,39.051a4.163,4.163,0,0,0-.051.514,1.517,1.517,0,0,0,.27.913.934.934,0,0,0,.81.373,2.18,2.18,0,0,0,1.029-.308l11.545-6.069,11.546,6.069a2.081,2.081,0,0,0,1.028.308.906.906,0,0,0,.785-.373,1.518,1.518,0,0,0,.27-.913,3.85,3.85,0,0,0-.026-.514L32.808,26.194l9.334-9.1a1.858,1.858,0,0,0,.669-1.234" transform="translate(-0.026 -0.044)" fill="#9d1e31" stroke="#9d1e31" stroke-width="2"/>
      <path id="Path_7-7" data-name="Path 7" d="M42.813,15.857q0-.952-1.44-1.183L28.465,12.8,22.68,1.1Q22.191.044,21.42.044T20.16,1.1L14.374,12.8,1.466,14.675q-1.44.231-1.44,1.183a1.959,1.959,0,0,0,.643,1.234l9.36,9.1L7.816,39.051a4.163,4.163,0,0,0-.051.514,1.517,1.517,0,0,0,.27.913.934.934,0,0,0,.81.373,2.18,2.18,0,0,0,1.029-.308l11.545-6.069,11.546,6.069a2.081,2.081,0,0,0,1.028.308.906.906,0,0,0,.785-.373,1.518,1.518,0,0,0,.27-.913,3.85,3.85,0,0,0-.026-.514L32.808,26.194l9.334-9.1a1.858,1.858,0,0,0,.669-1.234" transform="translate(69.952 -0.044)" fill="#9d1e31" stroke="#9d1e31" stroke-width="2"/>
      <path id="Path_7-8" data-name="Path 7" d="M42.813,15.857q0-.952-1.44-1.183L28.465,12.8,22.68,1.1Q22.191.044,21.42.044T20.16,1.1L14.374,12.8,1.466,14.675q-1.44.231-1.44,1.183a1.959,1.959,0,0,0,.643,1.234l9.36,9.1L7.816,39.051a4.163,4.163,0,0,0-.051.514,1.517,1.517,0,0,0,.27.913.934.934,0,0,0,.81.373,2.18,2.18,0,0,0,1.029-.308l11.545-6.069,11.546,6.069a2.081,2.081,0,0,0,1.028.308.906.906,0,0,0,.785-.373,1.518,1.518,0,0,0,.27-.913,3.85,3.85,0,0,0-.026-.514L32.808,26.194l9.334-9.1a1.858,1.858,0,0,0,.669-1.234" transform="translate(139.93 -0.044)" fill="#9d1e31" stroke="#9d1e31" stroke-width="2"/>
      <path id="Path_7-9" data-name="Path 7" d="M42.813,15.857q0-.952-1.44-1.183L28.465,12.8,22.68,1.1Q22.191.044,21.42.044T20.16,1.1L14.374,12.8,1.466,14.675q-1.44.231-1.44,1.183a1.959,1.959,0,0,0,.643,1.234l9.36,9.1L7.816,39.051a4.163,4.163,0,0,0-.051.514,1.517,1.517,0,0,0,.27.913.934.934,0,0,0,.81.373,2.18,2.18,0,0,0,1.029-.308l11.545-6.069,11.546,6.069a2.081,2.081,0,0,0,1.028.308.906.906,0,0,0,.785-.373,1.518,1.518,0,0,0,.27-.913,3.85,3.85,0,0,0-.026-.514L32.808,26.194l9.334-9.1a1.858,1.858,0,0,0,.669-1.234" transform="translate(209.907 -0.044)" fill="#9d1e31" stroke="#9d1e31" stroke-width="2"/>
      <path id="Path_7-10" data-name="Path 7" d="M42.813,15.857q0-.952-1.44-1.183L28.465,12.8,22.68,1.1Q22.191.044,21.42.044T20.16,1.1L14.374,12.8,1.466,14.675q-1.44.231-1.44,1.183a1.959,1.959,0,0,0,.643,1.234l9.36,9.1L7.816,39.051a4.163,4.163,0,0,0-.051.514,1.517,1.517,0,0,0,.27.913.934.934,0,0,0,.81.373,2.18,2.18,0,0,0,1.029-.308l11.545-6.069,11.546,6.069a2.081,2.081,0,0,0,1.028.308.906.906,0,0,0,.785-.373,1.518,1.518,0,0,0,.27-.913,3.85,3.85,0,0,0-.026-.514L32.808,26.194l9.334-9.1a1.858,1.858,0,0,0,.669-1.234" transform="translate(279.885 -0.044)" fill="#9d1e31" stroke="#9d1e31" stroke-width="2"/>
    </g>
  </g>
</svg>
