<svg xmlns="http://www.w3.org/2000/svg" width="1203.849" height="247.641" viewBox="0 0 1203.849 247.641">
  <g id="Ribbon" transform="translate(-384.815 -319.039)">
    <g id="Group_10" data-name="Group 10" transform="translate(483.311 319.039)">
      <g id="Group_9" data-name="Group 9">
        <path id="Path_12" data-name="Path 12" d="M1368.709,513.581a1771.762,1771.762,0,0,0-934.621,0q-17.409-63.553-34.77-127.093a1902.437,1902.437,0,0,1,1004.167,0Q1386.139,450.062,1368.709,513.581Z" transform="translate(-399.319 -319.039)" fill="#9d1e31"/>
      </g>
    </g>
    <g id="Group_12" data-name="Group 12" transform="translate(1386.048 417.605)">
      <g id="Group_11" data-name="Group 11">
        <path id="Path_13" data-name="Path 13" d="M636.33,333.553a629.424,629.424,0,0,0-34.96,105.993,332.73,332.73,0,0,0-69.119-17.989c.088,7.749.245,15.449.557,23.184,52.745,1.548,101.056,15.606,141.463,37.887q-2.394-28.807-7.341-57.655a357.822,357.822,0,0,1,67.937-44.27A420,420,0,0,0,636.33,333.553Z" transform="translate(-532.251 -333.553)" fill="#9d1e31"/>
      </g>
    </g>
    <g id="Group_14" data-name="Group 14" transform="translate(384.815 419.954)">
      <g id="Group_13" data-name="Group 13">
        <path id="Path_14" data-name="Path 14" d="M479.855,333.9a600.229,600.229,0,0,1,34.227,99.875,321.111,321.111,0,0,1,67.278-13.066c.082,7.321-.02,14.682-.19,21.982-51.917-1.331-100.486,10.03-142.006,30.322a506.546,506.546,0,0,1,10.995-57.255,359.422,359.422,0,0,0-65.343-48.617A413.246,413.246,0,0,1,479.855,333.9Z" transform="translate(-384.815 -333.899)" fill="#9d1e31"/>
      </g>
    </g>
  </g>
</svg>
